<svg width="64" height="64" viewBox="0 0 64 64" fill="none" xmlns="http://www.w3.org/2000/svg">
<rect width="64" height="64" fill="white"/>
<path d="M16 52H49.5C52.8137 52 55.5 49.3137 55.5 46V46C55.5 42.6863 52.8137 40 49.5 40H31C28.7909 40 27 38.2091 27 36V36C27 33.7909 28.7909 32 31 32H48" stroke="#D5B234" stroke-width="3" stroke-linecap="round" stroke-dasharray="6 6"/>
<path fill-rule="evenodd" clip-rule="evenodd" d="M56 16C56 17.5069 55.5834 18.9165 54.859 20.1199L48 32L41.1412 20.1202C40.4167 18.9168 40 17.507 40 16C40 11.5817 43.5817 8 48 8C52.4183 8 56 11.5817 56 16ZM48 20C50.2091 20 52 18.2091 52 16C52 13.7909 50.2091 12 48 12C45.7909 12 44 13.7909 44 16C44 18.2091 45.7909 20 48 20Z" fill="#3457D5"/>
<path fill-rule="evenodd" clip-rule="evenodd" d="M26 32C26 33.8836 25.4792 35.6457 24.5737 37.1499L16 52L7.42647 37.1502C6.52088 35.6459 6 33.8838 6 32C6 26.4772 10.4772 22 16 22C21.5228 22 26 26.4772 26 32ZM16 37C18.7614 37 21 34.7614 21 32C21 29.2386 18.7614 27 16 27C13.2386 27 11 29.2386 11 32C11 34.7614 13.2386 37 16 37Z" fill="#3457D5"/>
</svg>
